<?xml version="1.0" encoding="UTF-8"?>
<svg version="1.1" xmlns="http://www.w3.org/2000/svg" width="1840" height="205">
<path d="M0 0 C3.53481498 0.01657229 7.06958606 0.00754998 10.60442376 0.00248075 C16.52416517 -0.00201324 22.44358774 0.01367669 28.3632586 0.04177213 C35.20113218 0.07397561 42.03843644 0.07373689 48.8763513 0.05655736 C55.48069511 0.04069923 62.08483068 0.04741057 68.68916535 0.06449437 C71.49095817 0.07135485 74.29258354 0.07034343 77.09437394 0.06294942 C80.99574726 0.05386928 84.89653321 0.07780922 88.79782891 0.10524869 C89.95677667 0.09872281 91.11572442 0.09219693 92.3097918 0.0854733 C93.37062478 0.09819776 94.43145776 0.11092221 95.52443719 0.12403226 C96.44518375 0.12683918 97.36593032 0.1296461 98.31457829 0.13253808 C101.56408923 0.80405869 102.75831409 2.03720869 104.76389337 4.63869596 C105.5834875 10.99055046 104.64348011 13.42309258 100.76389337 18.63869596 C92.72210684 28.30758123 84.30756345 34.7293489 72.82688165 39.71340299 C69.96306493 40.99788409 67.18947818 42.43972535 64.40207696 43.88088346 C56.46130016 47.97549243 48.78336971 51.02730795 40.07370782 53.03868985 C38.33410259 53.49057626 36.61595579 54.02628586 34.91306329 54.60125089 C25.02117892 57.82989786 16.07849347 58.19721662 5.76389337 58.09963346 C4.07191889 58.09724196 2.37994172 58.0963452 0.68796563 58.09685636 C-2.82840228 58.0937547 -6.34435482 58.07738407 -9.86061835 58.05031705 C-14.3572 58.0161303 -18.85333228 58.008696 -23.35002875 58.01020741 C-26.83138505 58.00966302 -30.31264408 57.99868816 -33.79396796 57.98420453 C-35.45248915 57.97786676 -37.11102127 57.97390475 -38.7695539 57.97241712 C-41.08281413 57.96806362 -43.39560439 57.95052537 -45.70876288 57.9292233 C-47.02110908 57.9215997 -48.33345527 57.91397611 -49.68556952 57.90612149 C-53.20868171 57.64076159 -55.93724347 56.85126325 -59.23610663 55.63869596 C-62.33808146 55.3304494 -65.41485638 55.20153716 -68.52907538 55.08010221 C-71.50951395 54.59411439 -72.41724125 53.98259464 -74.23610663 51.63869596 C-73.90610663 50.64869596 -73.57610663 49.65869596 -73.23610663 48.63869596 C-70.44551502 47.24340015 -68.09878975 47.46896241 -64.98610663 47.45119596 C-63.86720038 47.43701627 -62.74829413 47.42283658 -61.59548163 47.40822721 C-58.23610663 47.63869596 -58.23610663 47.63869596 -55.48314643 48.63395047 C-51.81394315 49.76932782 -48.7623394 49.91295625 -44.92409492 49.94509244 C-44.21740165 49.95341596 -43.51070838 49.96173947 -42.78260016 49.97031522 C-40.45714938 49.99430925 -38.13198044 50.0031788 -35.80641913 50.00978971 C-34.17180533 50.01877147 -32.5371923 50.02789356 -30.90258002 50.03714871 C-27.47467286 50.05361784 -24.04686302 50.06133372 -20.61891913 50.06423306 C-16.2707741 50.06958258 -11.92357332 50.1071275 -7.57569289 50.15297723 C-4.19515063 50.18305006 -0.81482615 50.18996325 2.5658381 50.19095922 C4.16590549 50.19511012 5.76597675 50.20733235 7.36590981 50.22847676 C17.38355733 50.35021604 25.84491275 49.23112906 35.30225396 45.84098172 C38.45325011 44.7465876 41.49702081 43.97381153 44.76389337 43.32619596 C51.94511972 41.59881989 58.17654039 38.15097102 64.66428399 34.72365689 C66.77727971 33.63177864 68.91059634 32.60050667 71.06076837 31.58400846 C78.51768333 28.04053603 84.93632434 24.6281419 90.76389337 18.63869596 C91.73326837 17.77244596 92.70264337 16.90619596 93.70139337 16.01369596 C95.96595716 13.40601644 96.23849428 11.96806699 96.76389337 8.63869596 C80.61166107 8.62909999 64.45989625 8.65402774 48.30780816 8.71897435 C40.80644297 8.74835014 33.30535858 8.76683754 25.80393243 8.75881314 C19.25826152 8.75183972 12.71302604 8.76619117 6.16746163 8.80513203 C2.70817953 8.82499424 -0.75042099 8.83486992 -4.20973945 8.81911969 C-19.01833729 8.75881136 -31.83116372 8.82614754 -45.23610663 15.63869596 C-46.06192237 16.00894391 -46.8877381 16.37919187 -47.73857856 16.76065946 C-55.06094218 20.08743791 -61.83043778 23.71550204 -66.23610663 30.63869596 C-66.81038398 31.51461392 -66.81038398 31.51461392 -67.39626288 32.40822721 C-67.75591132 32.95865689 -68.11555976 33.50908658 -68.48610663 34.07619596 C-69.35235663 35.34463346 -69.35235663 35.34463346 -70.23610663 36.63869596 C-70.89610663 36.63869596 -71.55610663 36.63869596 -72.23610663 36.63869596 C-72.34567695 37.26518033 -72.45524726 37.89166471 -72.56813788 38.53713346 C-72.72669257 39.35439908 -72.88524726 40.17166471 -73.04860663 41.01369596 C-73.19942695 41.82580533 -73.35024726 42.63791471 -73.50563788 43.47463346 C-74.23610663 45.63869596 -74.23610663 45.63869596 -77.23610663 47.63869596 C-77.74444723 49.63246738 -77.74444723 49.63246738 -77.79860663 51.88869596 C-78.01873041 54.71885874 -78.29494737 56.80786307 -79.23610663 59.51369596 C-80.71449289 64.13365299 -80.91011419 68.81743932 -81.23610663 73.63869596 C-80.57610663 73.63869596 -79.91610663 73.63869596 -79.23610663 73.63869596 C-79.23610663 74.29869596 -79.23610663 74.95869596 -79.23610663 75.63869596 C-78.57610663 75.86557096 -77.91610663 76.09244596 -77.23610663 76.32619596 C-73.34952035 78.02657745 -69.59930846 80.0349268 -66.23610663 82.63869596 C-66.23610663 83.29869596 -66.23610663 83.95869596 -66.23610663 84.63869596 C-65.51938788 84.90811002 -64.80266913 85.17752408 -64.06423163 85.45510221 C-61.22292077 86.64421435 -58.65522888 88.04262133 -55.98610663 89.57619596 C-52.02195584 91.75805614 -48.27219113 93.49115078 -43.94704413 94.78713346 C-41.66905194 95.50269873 -39.44987851 96.28441264 -37.21266913 97.11525846 C-29.80064235 99.85427233 -23.17427132 102.09123632 -15.23610663 102.63869596 C-13.75110663 103.62869596 -13.75110663 103.62869596 -12.23610663 104.63869596 C-10.06463793 105.02420401 -10.06463793 105.02420401 -7.67360663 105.13869596 C5.39613713 106.27191073 16.67632498 110.4535234 28.30686212 116.44728971 C35.34581671 119.86045529 42.73996482 122.02803743 50.35373712 123.73244596 C53.24783632 124.82066478 54.73574281 126.34232131 56.76389337 128.63869596 C56.43389337 129.62869596 56.10389337 130.61869596 55.76389337 131.63869596 C48.8794142 133.79009569 42.68922837 130.7150671 36.51389337 127.84182096 C32.293083 125.99521642 27.96567958 124.44745333 23.64231133 122.85939908 C19.97970451 121.50370849 16.41722986 120.07124788 12.88889337 118.38869596 C6.58687693 115.51220739 0.0571684 114.69840698 -6.79860663 114.20119596 C-11.03399008 113.85316305 -14.60834916 113.05833886 -18.58376288 111.59182096 C-22.80066703 110.07646807 -27.09904825 108.8194647 -31.38918281 107.52834439 C-34.66024275 106.5231056 -37.81362638 105.43277417 -40.94704413 104.05275846 C-43.60870542 102.90843377 -45.93722267 102.15257164 -48.73610663 101.51369596 C-58.80139646 98.60936042 -67.79432517 91.69843332 -76.36110663 85.85744596 C-78.89518833 84.21029285 -81.49411327 82.90423135 -84.23610663 81.63869596 C-84.23610663 80.97869596 -84.23610663 80.31869596 -84.23610663 79.63869596 C-84.87548163 79.34994596 -85.51485663 79.06119596 -86.17360663 78.76369596 C-88.23610663 77.63869596 -88.23610663 77.63869596 -89.23610663 75.63869596 C-90.77821661 62.89732832 -87.25165038 48.28051738 -80.23610663 37.63869596 C-79.72048163 36.54557096 -79.20485663 35.45244596 -78.67360663 34.32619596 C-77.14018709 31.45936811 -75.59364225 29.86525737 -73.23610663 27.63869596 C-71.57639621 25.71823302 -69.93838054 23.7813674 -68.31032538 21.83400846 C-63.2016103 16.42704447 -58.01081071 12.6318299 -51.23610663 9.57619596 C-50.58255195 9.2635983 -49.92899726 8.95100064 -49.25563788 8.62893033 C-47.834333 7.97161016 -46.39717224 7.34779546 -44.94821906 6.75389981 C-43.11575421 6.0004016 -41.30045482 5.20395646 -39.50360847 4.36907315 C-26.76569958 -0.80639337 -13.54413593 -0.08002884 0 0 Z " fill="#000000" transform="translate(823.23610663414,31.36130404472351)"/>
</svg>
